<?xml version="1.0" encoding="UTF-8" standalone="no"?>
<!DOCTYPE svg PUBLIC "-//W3C//DTD SVG 1.1//EN" "http://www.w3.org/Graphics/SVG/1.1/DTD/svg11.dtd">
<svg version="1.1" xmlns="http://www.w3.org/2000/svg" xmlns:xlink="http://www.w3.org/1999/xlink" preserveAspectRatio="xMidYMid meet" viewBox="0 0 640 640" width="640" height="640"><defs><path d="M103.36 543.7L114.53 479.42C88.87 479.42 74.61 479.42 71.76 479.42C49.14 479.42 30.82 460.3 30.82 436.7C30.82 406.93 30.82 168.78 30.82 139.01C30.82 115.42 49.14 96.3 71.76 96.3C121.41 96.3 518.59 96.3 568.24 96.3C590.84 96.3 609.18 115.42 609.18 139.01C609.18 168.78 609.18 406.93 609.18 436.7C609.18 460.3 590.84 479.42 568.24 479.42C545.7 479.42 433.02 479.42 230.19 479.42L103.36 543.7Z" id="dhpadnyMQ"></path></defs><g><g><g><use xlink:href="#dhpadnyMQ" opacity="1" fill="#7905ff" fill-opacity="1"></use></g></g></g></svg>