<?xml version="1.0" encoding="UTF-8" standalone="no"?>
<!DOCTYPE svg PUBLIC "-//W3C//DTD SVG 1.1//EN" "http://www.w3.org/Graphics/SVG/1.1/DTD/svg11.dtd">
<svg version="1.1" xmlns="http://www.w3.org/2000/svg" xmlns:xlink="http://www.w3.org/1999/xlink" preserveAspectRatio="xMidYMid meet" viewBox="0 0 640 640" width="640" height="640"><defs><path d="M114.53 479.42C88.87 479.42 74.61 479.42 71.76 479.42C49.14 479.42 30.82 460.3 30.82 436.7C30.82 406.93 30.82 168.78 30.82 139.01C30.82 115.42 49.14 96.3 71.76 96.3C121.41 96.3 518.59 96.3 568.24 96.3C590.84 96.3 609.18 115.42 609.18 139.01C609.18 168.78 609.18 406.93 609.18 436.7C609.18 460.3 590.84 479.42 568.24 479.42C545.7 479.42 433.02 479.42 230.19 479.42C221.73 483.71 179.46 505.13 103.36 543.7C110.06 505.13 113.79 483.71 114.53 479.42Z" id="bb1Ox15S8"></path><path d="M213.68 278.36C213.68 301.34 195.76 320 173.68 320C151.61 320 133.68 301.34 133.68 278.36C133.68 255.37 151.61 236.71 173.68 236.71C195.76 236.71 213.68 255.37 213.68 278.36Z" id="bRUCY7nI7"></path><path d="M360 278.36C360 301.34 342.08 320 320 320C297.92 320 280 301.34 280 278.36C280 255.37 297.92 236.71 320 236.71C342.08 236.71 360 255.37 360 278.36Z" id="aX1L3ltnR"></path><path d="M506.32 278.36C506.32 301.34 488.39 320 466.32 320C444.24 320 426.32 301.34 426.32 278.36C426.32 255.37 444.24 236.71 466.32 236.71C488.39 236.71 506.32 255.37 506.32 278.36Z" id="culRQIkj"></path></defs><g><g><g><use xlink:href="#bb1Ox15S8" opacity="1" fill="#7905ff" fill-opacity="1"></use><g><use xlink:href="#bb1Ox15S8" opacity="1" fill-opacity="0" stroke="#000000" stroke-width="1" stroke-opacity="0"></use></g></g><g><use xlink:href="#bRUCY7nI7" opacity="1" fill="#ffffff" fill-opacity="1"></use></g><g><use xlink:href="#aX1L3ltnR" opacity="1" fill="#ffffff" fill-opacity="1"></use></g><g><use xlink:href="#culRQIkj" opacity="1" fill="#ffffff" fill-opacity="1"></use></g></g></g></svg>