<?xml version="1.0" encoding="UTF-8" standalone="no"?>
<!DOCTYPE svg PUBLIC "-//W3C//DTD SVG 1.1//EN" "http://www.w3.org/Graphics/SVG/1.1/DTD/svg11.dtd">
<svg version="1.1" xmlns="http://www.w3.org/2000/svg" xmlns:xlink="http://www.w3.org/1999/xlink" preserveAspectRatio="xMidYMid meet" viewBox="0 0 640 640" width="640" height="640"><defs><path d="M514.96 537.53L504.92 475.02C528.01 475.02 540.84 475.02 543.41 475.02C563.76 475.02 580.25 456.43 580.25 433.49C580.25 404.54 580.25 172.95 580.25 144C580.25 121.06 563.76 102.47 543.41 102.47C498.73 102.47 141.27 102.47 96.59 102.47C76.25 102.47 59.75 121.06 59.75 144C59.75 172.95 59.75 404.54 59.75 433.49C59.75 456.43 76.25 475.02 96.59 475.02C116.87 475.02 218.29 475.02 400.83 475.02L514.96 537.53Z" id="d6K8x05EJO"></path><path d="M116.84 268.95L516.84 268.95L516.84 303.68L116.84 303.68L116.84 268.95Z" id="byGRlSrmW"></path><path d="M116.84 351.05L516.84 351.05L516.84 385.79L116.84 385.79L116.84 351.05Z" id="a2K3GDFZQs"></path><path d="M116.84 188.95L516.84 188.95L516.84 223.68L116.84 223.68L116.84 188.95Z" id="b3fBqEHI1p"></path></defs><g><g><g><use xlink:href="#d6K8x05EJO" opacity="1" fill="#008080" fill-opacity="1"></use></g><g><use xlink:href="#byGRlSrmW" opacity="1" fill="#7905ff" fill-opacity="1"></use></g><g><use xlink:href="#a2K3GDFZQs" opacity="1" fill="#7905ff" fill-opacity="1"></use></g><g><use xlink:href="#b3fBqEHI1p" opacity="1" fill="#7905ff" fill-opacity="1"></use></g></g></g></svg>